<mxfile host="app.diagrams.net" modified="2024-04-08T06:37:49.357Z" agent="Mozilla/5.0 (X11; Linux x86_64) AppleWebKit/537.36 (KHTML, like Gecko) Chrome/113.0.0.0 Safari/537.36 OPR/99.0.0.0" version="23.0.2" etag="OQZZJpa_0feRRmDM25az" type="github">
  <diagram name="Page-1" id="03zsgKYBh2Yow3c9vuxt">
    <mxGraphModel>
      <root>
        <mxCell id="0" />
        <mxCell id="1" parent="0" />
      </root>
    </mxGraphModel>
  </diagram>
</mxfile>
